<?xml version="1.0" ?><svg height="55px" version="1.1" viewBox="0 0 56 55" width="56px" xmlns="http://www.w3.org/2000/svg" xmlns:xlink="http://www.w3.org/1999/xlink"><title/><desc/><defs/><g fill="none" fill-rule="evenodd" id="Page-1" stroke="none" stroke-width="1"><g fill="#000000" fill-rule="nonzero" id="011---Dove-"><path d="M16.07813,18.33691 C18.69238,21.45117 22.53369,22.61279 25.29541,23.03857 C29.2005299,23.7819856 33.2324815,23.4854505 36.98682,22.17871 C37.4992398,21.9760726 38.0790202,22.226179 38.2832506,22.737966 C38.487481,23.2497531 38.2391793,23.8303086 37.72803,24.03613 C35.2123428,24.9848276 32.5398025,25.4487246 29.85156,25.40332 C29.10773,25.40332 28.34491,25.36981 27.56946,25.31055 C27.52681,27.3535532 26.7528642,29.3135103 25.38818,30.83447 C24.0583263,32.134475 22.2954641,32.8979388 20.4375,32.97852 C20.9916385,34.0933073 21.7191008,35.1131391 22.59277,36 L27.43213,36 C28.4544935,36.0022789 29.4593028,36.2658735 30.35113,36.76575 C31.7779505,34.0690767 33.6770379,31.6502822 35.95813,29.62433 C34.6282111,29.5046198 33.3087666,29.2882885 32.01025,28.97705 C31.4771023,28.8366362 31.1581487,28.2912377 31.2971801,27.7577278 C31.4362116,27.224218 31.9807816,26.9038518 32.51465,27.0415 C34.6365833,27.5347498 36.8093439,27.7756783 38.98779,27.75928 C43.29492,27.69728 46.55179,26.54004 48.66406,24.31982 C52.35106,20.44482 52.18262,16.58594 52.03418,13.18115 C51.8971313,11.7116546 51.9602072,10.2303557 52.22168,8.77783 C52.6571,6.95758203 53.5090413,5.26322944 54.71045,3.82813 C52.9135235,3.43857412 51.1945735,2.75067299 49.625,1.793 C48.2978494,0.971683096 46.5788568,1.17886868 45.48486,2.292 C44.6594593,3.21502678 44.0115034,4.28246516 43.57355,5.44068 C44.333901,6.41588858 44.9871421,7.47005942 45.522,8.585 C45.6772328,8.90754534 45.6482349,9.28846187 45.4459653,9.58379175 C45.2436958,9.87912162 44.8990043,10.0438217 44.5421585,10.0156476 C44.1853127,9.98747356 43.870738,9.77072248 43.71732,9.44731 C41.09432,3.95951 35.39847,0.48931 29.8555,1.00346 C28.0884846,1.23238883 26.3493567,1.64056537 24.665,2.22168 C23.52682,2.56982 22.35006,2.92968 21.15328,3.18945 C19.4601361,3.63564571 17.6787026,3.6228367 15.99215,3.15234 C14.4902984,2.58196415 13.1566611,1.64182791 12.11475,0.419 C11.8721447,3.47213491 12.009093,6.54357217 12.52246,9.563 C13.17236,13.39111 14.33545,16.26123 16.07813,18.33691 Z M47.29,3.58984 C47.5760905,3.30138005 48.0082668,3.21467814 48.3834815,3.37046905 C48.7586962,3.52625996 49.0023626,3.89357493 49,4.29984 C49,4.85212475 48.5522847,5.29984 48,5.29984 C47.4477153,5.29984 47,4.85212475 47,4.29984 C47.001845,4.03470206 47.1056938,3.78045155 47.29,3.58984 Z M29.291,20.59424 C29.6530113,20.2443567 29.9002506,19.7927981 30,19.29932 C30,18.7470353 30.4477153,18.29932 31,18.29932 C31.5522847,18.29932 32,18.7470353 32,19.29932 C31.8995481,20.3252967 31.4419125,21.2833938 30.707,22.00632 C30.3168805,22.3963168 29.6846208,22.3967019 29.2940264,22.0071806 C28.9034321,21.6176593 28.9020779,20.9854009 29.291,20.59421 L29.291,20.59424 Z M27.94871,16.61572 C26.73484,20.25732 22.19285,20.29932 21.99998,20.29932 C21.4476953,20.2999938 20.9994338,19.8528247 20.99876,19.30054 C20.9980862,18.7482553 21.4452553,18.2999938 21.99754,18.29932 C22.06297,18.29883 25.29881,18.24121 26.05125,15.98291 C26.2259957,15.4589409 26.7924159,15.1758393 27.316385,15.350585 C27.8403541,15.5253307 28.1234557,16.0917509 27.94871,16.61572 Z M26.707,10.59229 C26.8945825,10.7797707 26.9999739,11.0341102 26.9999739,11.29932 C26.9999739,11.5645298 26.8945825,11.8188693 26.707,12.00635 C24.8673725,13.680798 22.4420108,14.5628757 19.95651,14.46143 C19.2348647,14.4666013 18.5142571,14.4058017 17.80368,14.27979 C17.2620461,14.171788 16.910518,13.6451539 17.01852,13.10352 C17.126522,12.5618861 17.6531561,12.210358 18.19479,12.31836 C18.26169,12.33105 22.7236,13.16016 25.29294,10.59229 C25.4804207,10.4047075 25.7347602,10.2993161 25.99997,10.2993161 C26.2651798,10.2993161 26.5195193,10.4047075 26.707,10.59229 Z M14.03857,7.0249 C14.1103613,6.76927549 14.2812851,6.55291699 14.5133527,6.42391123 C14.7454204,6.29490548 15.0194042,6.26394107 15.27441,6.3379 C17.09912,6.8579 22.30469,7.89503 24.44531,6.4673 C24.7425601,6.26623614 25.1247575,6.23986756 25.4468034,6.39820492 C25.7688493,6.55654228 25.9813591,6.87530507 26.0036549,7.2334771 C26.0259506,7.59164912 25.8546133,7.93430588 25.55469,8.13136 C24.1759659,8.91043034 22.6033065,9.27924573 21.02197,9.19436 C18.8922115,9.14793406 16.7767092,8.83428093 14.7251,8.26076 C14.470174,8.18791624 14.2546267,8.01678598 14.125877,7.78501669 C13.9971273,7.55324739 13.965722,7.27982481 14.03857,7.0249 Z" id="Shape"/><rect height="23" id="Rectangle-path" rx="1" width="7" x="0" y="32"/><path d="M55.65186,39.18506 C55.2032905,38.58222 54.4183828,38.3354828 53.70557,38.57324 L35.19482,44.74365 C34.6849895,44.913451 34.1511335,45.00001 33.61377,45 L24.7251,45 C23.1454789,44.9984411 21.6009931,45.4661375 20.2876,46.34375 L19.55469,46.83203 C19.257442,47.0321237 18.8758449,47.0578535 18.5544263,46.8994745 C18.2330076,46.7410954 18.0209164,46.4228256 17.9984808,46.0652078 C17.9760452,45.7075899 18.1466959,45.3653084 18.4458,45.168 L19.17871,44.67972 C20.8202308,43.5826163 22.7507082,42.9979727 24.7251,43 L30.8031,43 C31.4386098,42.1501207 31.4971213,41.0003326 30.95117,40.09033 L30.8623,39.94333 C30.1369239,38.7407883 28.8365019,38.0040467 27.43213,38 L22.20166,38 L22.17499,37.99884 L22.16943,38 L22.15961,37.99817 C19.8752074,37.9863966 17.6614071,37.2052366 15.87549,35.78076 C14.4331787,34.6301052 12.6434045,34.0023597 10.79834,34 L9,34 L9,54.0000001 L33.2998,54 C34.4002076,54.0001757 35.4794581,53.6976349 36.41943,53.12549 L55.16406,41.71533 C55.5833466,41.4603234 55.8754346,41.0400977 55.9683324,40.5582268 C56.0612303,40.0763559 55.9462968,39.5776623 55.65186,39.18506 Z" id="Shape"/></g></g></svg>